<?xml version="1.0" encoding="utf-8"?>
<!-- Generator: Adobe Illustrator 25.2.1, SVG Export Plug-In . SVG Version: 6.00 Build 0)  -->
<svg version="1.1" id="Logo" xmlns:svgjs="http://svgjs.com/svgjs"
    xmlns="http://www.w3.org/2000/svg" xmlns:xlink="http://www.w3.org/1999/xlink" x="0px" y="0px"
    viewBox="0 0 1000 1000"
    style="enable-background:new 0 0 1000 1000;" xml:space="preserve">
<style type="text/css">
	.st0{fill:#FFFFFF;}
</style>
<path class="st0" d="M100,0h800c55.2,0,100,44.8,100,100v800c0,55.2-44.8,100-100,100H100C44.8,1000,0,955.2,0,900V100
	C0,44.8,44.8,0,100,0z"/>
<g>
	<path d="M67.7,332.4H106v264.7h126.9v32.2H67.7V332.4z"/>
	<path d="M461,520.9c0,78.8-54.6,113.2-106.2,113.2c-57.7,0-102.2-42.3-102.2-109.7c0-71.4,46.7-113.2,105.7-113.2
		C419.6,411.2,461,455.7,461,520.9z M291.9,523.1c0,46.7,26.9,81.9,64.7,81.9c37,0,64.7-34.8,64.7-82.8c0-36.1-18.1-81.9-63.9-81.9
		S291.9,482.6,291.9,523.1z"/>
	<path d="M693.6,416.1c-0.9,15.4-1.8,32.6-1.8,58.6v123.8c0,48.9-9.7,78.8-30.4,97.3c-20.7,19.4-50.7,25.5-77.5,25.5
		c-25.5,0-53.7-6.2-70.9-17.6l9.7-29.5c14.1,8.8,36.1,16.7,62.5,16.7c39.6,0,68.7-20.7,68.7-74.4v-23.8h-0.9
		c-11.9,19.8-34.8,35.7-67.8,35.7c-52.9,0-90.7-44.9-90.7-103.9c0-72.2,47.1-113.2,96-113.2c37,0,57.3,19.4,66.5,37h0.9l1.8-32.2
		H693.6z M653.5,500.2c0-6.6-0.4-12.3-2.2-17.6c-7-22.5-26-41-54.2-41c-37,0-63.4,31.3-63.4,80.6c0,41.8,21.1,76.6,63,76.6
		c23.8,0,45.4-15,53.7-39.6c2.2-6.6,3.1-14.1,3.1-20.7V500.2z"/>
	<path d="M949,520.9c0,78.8-54.6,113.2-106.2,113.2c-57.7,0-102.2-42.3-102.2-109.7c0-71.4,46.7-113.2,105.7-113.2
		C907.6,411.2,949,455.7,949,520.9z M779.9,523.1c0,46.7,26.9,81.9,64.7,81.9c37,0,64.7-34.8,64.7-82.8c0-36.1-18.1-81.9-63.9-81.9
		C799.7,440.3,779.9,482.6,779.9,523.1z"/>
</g>
</svg>