<svg width="80" height="80" viewBox="0 0 80 80" fill="none" xmlns="http://www.w3.org/2000/svg">
<path d="M39.5 2C32.0832 2 24.833 4.19934 18.6661 8.31989C12.4993 12.4404 7.69282 18.2971 4.85453 25.1494C2.01625 32.0016 1.27362 39.5416 2.72057 46.8159C4.16751 54.0902 7.73904 60.772 12.9835 66.0165C18.228 71.261 24.9098 74.8325 32.1841 76.2794C39.4584 77.7264 46.9984 76.9838 53.8506 74.1455C60.7029 71.3072 66.5596 66.5007 70.6801 60.3339C74.8007 54.167 77 46.9168 77 39.5C76.9892 29.5577 73.0349 20.0257 66.0046 12.9954C58.9743 5.96509 49.4423 2.01075 39.5 2ZM39.5 70.75C33.3193 70.75 27.2775 68.9172 22.1384 65.4834C16.9994 62.0496 12.994 57.169 10.6288 51.4588C8.26354 45.7487 7.64469 39.4653 8.85048 33.4034C10.0563 27.3415 13.0325 21.7733 17.4029 17.4029C21.7733 13.0325 27.3415 10.0562 33.4034 8.85046C39.4653 7.64467 45.7487 8.26352 51.4589 10.6288C57.1691 12.994 62.0496 16.9994 65.4834 22.1384C68.9172 27.2775 70.75 33.3193 70.75 39.5C70.7409 47.7852 67.4456 55.7285 61.587 61.587C55.7285 67.4456 47.7852 70.7409 39.5 70.75Z" fill="#FFC700"/>
<path d="M39.5005 17.6255C38.6717 17.6255 37.8769 17.9547 37.2908 18.5408C36.7048 19.1268 36.3755 19.9217 36.3755 20.7505V45.7505C36.3755 46.5793 36.7048 47.3741 37.2908 47.9602C37.8769 48.5462 38.6717 48.8755 39.5005 48.8755C40.3293 48.8755 41.1242 48.5462 41.7103 47.9602C42.2963 47.3741 42.6256 46.5793 42.6256 45.7505V20.7505C42.6256 19.9217 42.2963 19.1268 41.7103 18.5408C41.1242 17.9547 40.3293 17.6255 39.5005 17.6255Z" fill="#FFC700"/>
<path d="M42.6256 58.2505C42.6256 56.5246 41.2264 55.1254 39.5005 55.1254C37.7746 55.1254 36.3755 56.5246 36.3755 58.2505C36.3755 59.9763 37.7746 61.3755 39.5005 61.3755C41.2264 61.3755 42.6256 59.9763 42.6256 58.2505Z" fill="#FFC700"/>
</svg>
