<svg width="16" height="14" viewBox="0 0 16 14" fill="none" xmlns="http://www.w3.org/2000/svg">
<path fill-rule="evenodd" clip-rule="evenodd" d="M1.70998 0.540276C3.57512 -0.180092 5.65419 -0.180092 7.51933 0.540276L8.10303 0.765715L8.68672 0.540276C10.5519 -0.180092 12.6309 -0.180092 14.4961 0.540276C15.1483 0.792194 15.603 1.41605 15.603 2.13912V12.0846C15.603 13.1724 14.4991 13.8176 13.567 13.4576C12.2993 12.968 10.8835 12.968 9.61583 13.4576L8.29644 13.9672C8.23531 13.9908 8.16933 14.0015 8.10303 13.9998C8.03672 14.0015 7.97075 13.9908 7.90962 13.9672L6.59022 13.4576C5.32253 12.968 3.90678 12.968 2.63909 13.4576C1.70697 13.8176 0.603027 13.1724 0.603027 12.0846V2.13912C0.603027 1.41605 1.05773 0.792194 1.70998 0.540276ZM8.62628 12.6893L9.24815 12.4492C10.7529 11.868 12.4299 11.868 13.9346 12.4492C14.2756 12.5809 14.5565 12.3208 14.5565 12.0846V2.13912C14.5565 1.89803 14.4033 1.65485 14.1284 1.54868C12.5003 0.919873 10.6825 0.919873 9.05441 1.54868L8.62628 1.71404V12.6893ZM7.57977 1.71404L7.15165 1.54868C5.52356 0.919873 3.70575 0.919873 2.07766 1.54868C1.80278 1.65485 1.64954 1.89803 1.64954 2.13912V12.0846C1.64954 12.3208 1.93044 12.5809 2.27141 12.4492C3.77614 11.868 5.45317 11.868 6.9579 12.4492L7.57977 12.6893V1.71404Z" fill="#5F5F5F"/>
</svg>
