<svg width="13" height="14" viewBox="0 0 8 9" fill="none" xmlns="http://www.w3.org/2000/svg">
<path fill-rule="evenodd" clip-rule="evenodd" d="M4 1.31974C2.09911 1.31974 0.55814 2.88262 0.55814 4.81053C0.55814 6.73845 2.09911 8.30133 4 8.30133C5.90089 8.30133 7.44186 6.73845 7.44186 4.81053C7.44186 2.88262 5.90089 1.31974 4 1.31974ZM0 4.81053C0 2.56999 1.79086 0.753662 4 0.753662C6.20914 0.753662 8 2.56999 8 4.81053C8 7.05108 6.20914 8.86741 4 8.86741C1.79086 8.86741 0 7.05108 0 4.81053ZM4 3.01796C4.15413 3.01796 4.27907 3.14468 4.27907 3.301V3.59708C4.27907 4.26116 4.60869 4.88193 5.15882 5.2539L5.27108 5.3298C5.39932 5.41651 5.43397 5.59224 5.34848 5.7223C5.26299 5.85237 5.08972 5.88751 4.96148 5.8008L3.92805 5.10205C3.79865 5.01456 3.72093 4.86727 3.72093 4.70955V3.301C3.72093 3.14468 3.84587 3.01796 4 3.01796Z" fill="#5F5F5F"/>
</svg>
