<svg width="12" height="12" viewBox="0 0 7 8" fill="none" xmlns="http://www.w3.org/2000/svg">
<path fill-rule="evenodd" clip-rule="evenodd" d="M1.59454 1.07335C1.73411 0.68991 2.12595 0.431274 2.56732 0.431274H3.72956C4.17092 0.431274 4.56277 0.68991 4.70234 1.07335L4.8415 1.45566H5.22993C5.98545 1.45566 6.41672 2.24554 5.9634 2.79904C5.76993 3.03528 5.66534 3.32261 5.66534 3.61791V5.80932C5.66534 6.7051 4.87237 7.43127 3.89419 7.43127H2.40269C1.42451 7.43127 0.631535 6.7051 0.631535 5.80932V3.61791C0.631535 3.32261 0.526948 3.03528 0.333471 2.79904C-0.119842 2.24554 0.311425 1.45566 1.06695 1.45566H1.45538L1.59454 1.07335ZM1.65049 1.96786C1.65483 1.96795 1.65915 1.96795 1.66347 1.96786H4.63341C4.63772 1.96795 4.64205 1.96795 4.64638 1.96786H5.22993C5.52455 1.96786 5.69273 2.27588 5.51595 2.49172C5.24987 2.81662 5.10603 3.21179 5.10603 3.61791V5.80932C5.10603 6.42222 4.56347 6.91908 3.89419 6.91908H2.40269C1.73341 6.91908 1.19085 6.42222 1.19085 5.80932V3.61791C1.19085 3.21179 1.04701 2.81662 0.780921 2.49172C0.604146 2.27588 0.772324 1.96786 1.06695 1.96786H1.65049ZM4.25193 1.45566H2.04494L2.12514 1.23532C2.18859 1.06103 2.3667 0.94347 2.56732 0.94347H3.72956C3.93018 0.94347 4.10829 1.06103 4.17173 1.23532L4.25193 1.45566ZM2.40269 3.16298C2.55714 3.16298 2.68234 3.27764 2.68234 3.41908L2.68234 5.46786C2.68234 5.6093 2.55714 5.72396 2.40269 5.72396C2.24824 5.72396 2.12303 5.6093 2.12303 5.46786L2.12303 3.41908C2.12303 3.27764 2.24824 3.16298 2.40269 3.16298ZM3.89419 3.16298C4.04864 3.16298 4.17384 3.27764 4.17384 3.41908V5.46786C4.17384 5.6093 4.04864 5.72396 3.89419 5.72396C3.73974 5.72396 3.61453 5.6093 3.61453 5.46786V3.41908C3.61453 3.27764 3.73974 3.16298 3.89419 3.16298Z" fill="#5F5F5F"/>
</svg>
