<svg xmlns="http://www.w3.org/2000/svg" viewBox="0 0 11.99 11.72"><defs><style>.cls-1,.cls-2{fill:#60605f;}.cls-2{fill-rule:evenodd;}</style></defs><g id="Camada_2" data-name="Camada 2"><g id="Camada_1-2" data-name="Camada 1"><path class="cls-1" d="M5.13,6.46l.14-.1.34.53L5.47,7Z"/><path class="cls-1" d="M4.61,4.59l.16,0,.11.61-.16,0Z"/><path class="cls-1" d="M4.65,2.73h.17l0,.62H4.7Z"/><path class="cls-1" d="M4.17.64,4.31.56l.3.55-.15.08Z"/><path class="cls-1" d="M2.66.17V0h.62V.16Z"/><path class="cls-1" d="M1.23.57l0-.16L1.78.22l.05.16Z"/><path class="cls-1" d="M.13,1.51,0,1.41.37.91.51,1Z"/><path class="cls-1" d="M.39,3.93.24,4,.06,3.37l.16,0Z"/><path class="cls-1" d="M1,5.75l-.16,0-.17-.6.16,0Z"/><path class="cls-1" d="M1.25,7.67H1.09L1,7.05h.17Z"/><path class="cls-1" d="M1.21,9.72l-.16,0L1,9.11h.16Z"/><path class="cls-2" d="M6.35,9.36,7,8.65l4.19-4.32c.19-.2.37-.42.55-.64a.86.86,0,0,0-.09-1.23.86.86,0,0,0-1.26,0,5.4,5.4,0,0,0-.42.41C9.36,3.58,8.72,4.29,8.1,5l-2.63,3s0,.09-.09.14A3.26,3.26,0,0,1,6.35,9.36ZM3.5,11.72a4.71,4.71,0,0,0,.59,0,3.62,3.62,0,0,0,1.49-.44A1.23,1.23,0,0,0,6.22,10a2.17,2.17,0,0,0-.83-1.46,1.07,1.07,0,0,0-1.45-.08,3.55,3.55,0,0,0-.95.9,3.65,3.65,0,0,1-.39.49,1.39,1.39,0,0,1-1.44.45l-.21,0c-.21,0-.33.16-.21.33a1.54,1.54,0,0,0,.36.4A4.14,4.14,0,0,0,3.5,11.72Z"/><path class="cls-2" d="M6.35,9.36a3.26,3.26,0,0,0-1-1.17s.06-.1.09-.14L8.1,5c.62-.72,1.26-1.43,1.9-2.14a5.4,5.4,0,0,1,.42-.41.86.86,0,0,1,1.26,0,.86.86,0,0,1,.09,1.23c-.18.22-.36.44-.55.64L7,8.65Z"/><path class="cls-2" d="M3.5,11.72A4.14,4.14,0,0,1,1.1,11a1.54,1.54,0,0,1-.36-.4c-.12-.17,0-.34.21-.33l.21,0A1.39,1.39,0,0,0,2.6,9.8,3.65,3.65,0,0,0,3,9.31a3.55,3.55,0,0,1,.95-.9,1.07,1.07,0,0,1,1.45.08A2.17,2.17,0,0,1,6.22,10a1.23,1.23,0,0,1-.64,1.29,3.62,3.62,0,0,1-1.49.44A4.71,4.71,0,0,1,3.5,11.72Z"/></g></g></svg>