<svg xmlns="http://www.w3.org/2000/svg" xmlns:xlink="http://www.w3.org/1999/xlink" viewBox="0 0 71 71"><defs><style>.cls-1,.cls-3{fill:#e7c706;}.cls-1,.cls-5{stroke:#e7c706;stroke-miterlimit:10;}.cls-2{fill:#fff;}.cls-4{clip-path:url(#clip-path);}.cls-5{fill:none;}.cls-6{clip-path:url(#clip-path-2);}</style><clipPath id="clip-path"><path class="cls-1" d="M35.5,29.85a5.67,5.67,0,0,0-5.65,5.65,5.65,5.65,0,0,0,11.3,0,5.67,5.67,0,0,0-5.65-5.65Zm0,9.87a4.23,4.23,0,1,1,4.22-4.22A4.22,4.22,0,0,1,35.5,39.72Z"/></clipPath><clipPath id="clip-path-2"><path class="cls-1" d="M58.15,46.72a2.25,2.25,0,0,0-3.84-1.59A24.52,24.52,0,0,0,52,48a3.36,3.36,0,0,0-.71-.08,3.15,3.15,0,0,0-.92.13c-.3-.62-.72-1.36-1.21-2.22C47.57,43,45.35,39.12,45.35,35.5S47.57,28,49.18,25.16c.49-.86.91-1.6,1.21-2.22a3.15,3.15,0,0,0,.92.13A3.36,3.36,0,0,0,52,23a25.82,25.82,0,0,0,2.29,2.89,2.25,2.25,0,1,0,3.18-3.19,26.84,26.84,0,0,0-2.88-2.28,3.4,3.4,0,0,0-4-4,26.35,26.35,0,0,0-2.28-2.88,2.25,2.25,0,0,0-3.84,1.59,2.18,2.18,0,0,0,.66,1.59A24.52,24.52,0,0,0,48,19a3.36,3.36,0,0,0-.08.71,3.15,3.15,0,0,0,.13.92c-.63.3-1.36.71-2.22,1.21C43,23.43,39.12,25.65,35.5,25.65S28,23.43,25.16,21.81c-.84-.47-1.58-.9-2.22-1.2a3.15,3.15,0,0,0,.13-.92A3.36,3.36,0,0,0,23,19a25.82,25.82,0,0,0,2.89-2.29,2.25,2.25,0,0,0-3.19-3.18,26.84,26.84,0,0,0-2.28,2.88,3.4,3.4,0,0,0-4,4,26.35,26.35,0,0,0-2.88,2.28,2.25,2.25,0,0,0,1.59,3.84h0a2.22,2.22,0,0,0,1.59-.66A24.52,24.52,0,0,0,19,23a3.36,3.36,0,0,0,.71.08,3.15,3.15,0,0,0,.92-.13c.3.62.72,1.36,1.21,2.22,1.61,2.83,3.83,6.72,3.83,10.34S23.43,43,21.82,45.84c-.5.87-.91,1.6-1.21,2.22a3.15,3.15,0,0,0-.92-.13A3.36,3.36,0,0,0,19,48a25.82,25.82,0,0,0-2.29-2.89,2.25,2.25,0,0,0-3.18,3.19,26.84,26.84,0,0,0,2.88,2.28,3.4,3.4,0,0,0,4,4,26.35,26.35,0,0,0,2.28,2.88,2.25,2.25,0,0,0,3.84-1.59,2.18,2.18,0,0,0-.66-1.59A24.52,24.52,0,0,0,23,52a3.36,3.36,0,0,0,.08-.71,3.15,3.15,0,0,0-.13-.92c.63-.3,1.36-.72,2.22-1.21,2.84-1.61,6.72-3.83,10.34-3.83S43,47.57,45.84,49.19c.86.48,1.59.9,2.22,1.2a3.15,3.15,0,0,0-.13.92A3.36,3.36,0,0,0,48,52a25.82,25.82,0,0,0-2.89,2.29,2.25,2.25,0,0,0,1.59,3.84h0a2.27,2.27,0,0,0,1.59-.66,26.84,26.84,0,0,0,2.28-2.88,3.4,3.4,0,0,0,4-4,26.35,26.35,0,0,0,2.88-2.28A2.22,2.22,0,0,0,58.15,46.72Zm-5-25.24a4.23,4.23,0,0,0,.44-.51,34,34,0,0,1,3.59,2.86,1.2,1.2,0,0,1,0,1.68,1.2,1.2,0,0,1-1.69,0,33.57,33.57,0,0,1-2.85-3.58A5.47,5.47,0,0,0,53.1,21.48Zm-3.17-3.17a2,2,0,1,1-.57,1.38A1.94,1.94,0,0,1,49.93,18.31Zm-4.29-2.72a1.1,1.1,0,0,1-.32-.78,1.08,1.08,0,0,1,.32-.78,1.11,1.11,0,0,1,.78-.33,1.09,1.09,0,0,1,.78.33,30.2,30.2,0,0,1,2.65,3.32,3.72,3.72,0,0,0-.48.41c-.14.15-.28.31-.41.47A32.31,32.31,0,0,1,45.64,15.59Zm-30,9.71a1.07,1.07,0,0,1-.76.32,1,1,0,0,1-.76-.32,1.05,1.05,0,0,1,0-1.51,30.31,30.31,0,0,1,3.23-2.57,3.39,3.39,0,0,0,.4.45,3.47,3.47,0,0,0,.46.4A29.55,29.55,0,0,1,15.6,25.3Zm5.47-4.23a2,2,0,1,1,.57-1.38A1.94,1.94,0,0,1,21.07,21.07Zm.16-3.77a30.45,30.45,0,0,1,2.55-3.21,1.08,1.08,0,0,1,.76-.31,1.06,1.06,0,0,1,.75.31,1.09,1.09,0,0,1,.32.76,1.07,1.07,0,0,1-.32.75,29.21,29.21,0,0,1-3.21,2.55,4.19,4.19,0,0,0-.39-.45A4.25,4.25,0,0,0,21.23,17.3Zm-3.54,32a4.19,4.19,0,0,0-.39.45,29.27,29.27,0,0,1-3.2-2.54,1.06,1.06,0,1,1,1.5-1.51,30,30,0,0,1,2.55,3.2A3.47,3.47,0,0,0,17.69,49.31Zm3.38,3.38a2,2,0,1,1,.57-1.38A1.94,1.94,0,0,1,21.07,52.69Zm4.27,2.72a1.07,1.07,0,0,1,.32.77,1.1,1.1,0,0,1-.32.77,1.07,1.07,0,0,1-.77.32,1.1,1.1,0,0,1-.78-.32,31.52,31.52,0,0,1-2.61-3.28,4.49,4.49,0,0,0,.46-.41,3.63,3.63,0,0,0,.41-.47A31.7,31.7,0,0,1,25.34,55.41ZM46.55,48c-3-1.7-7-4-11-4s-8.07,2.33-11,4c-.77.44-1.56.88-2.18,1.18l-.19-.21-.21-.19c.28-.6.7-1.33,1.18-2.18,1.7-3,4-7.06,4-11s-2.33-8.07-4-11c-.48-.85-.9-1.58-1.18-2.18l.21-.19.19-.21c.61.29,1.38.73,2.18,1.18,3,1.7,7.05,4,11.05,4s8.07-2.33,11-4c.8-.45,1.57-.89,2.18-1.18l.19.21.21.19c-.28.6-.7,1.33-1.18,2.18-1.7,3-4,7.06-4,11.05s2.33,8.07,4,11c.48.85.9,1.58,1.18,2.18l-.21.19-.19.21C48.12,48.84,47.35,48.4,46.55,48Zm.66,9a1.12,1.12,0,0,1-1.55,0,1.1,1.1,0,0,1-.32-.78,1.07,1.07,0,0,1,.32-.77A30.9,30.9,0,0,1,49,52.79a3.63,3.63,0,0,0,.41.47,4.49,4.49,0,0,0,.46.41A32,32,0,0,1,47.21,57Zm5.48-4.27a2,2,0,1,1,.57-1.38A1.94,1.94,0,0,1,52.69,52.69Zm4.19-5.47a30,30,0,0,1-3.16,2.52,3.39,3.39,0,0,0-.4-.45,5.34,5.34,0,0,0-.44-.39,28,28,0,0,1,2.52-3.17,1,1,0,0,1,1.48,0,1.06,1.06,0,0,1,.31.75A1,1,0,0,1,56.88,47.22Z"/></clipPath></defs><g id="Camada_2" data-name="Camada 2"><g id="Camada_1-2" data-name="Camada 1"><rect class="cls-2" width="71" height="71" rx="5"/><path class="cls-3" d="M35.5,29.85a5.67,5.67,0,0,0-5.65,5.65,5.65,5.65,0,0,0,11.3,0,5.67,5.67,0,0,0-5.65-5.65Zm0,9.87a4.23,4.23,0,1,1,4.22-4.22A4.22,4.22,0,0,1,35.5,39.72Z"/><g class="cls-4"><rect class="cls-1" x="31.28" y="31.28" width="8.45" height="0.02"/><rect class="cls-1" x="31.28" y="31.3" width="8.45" height="0.38"/><rect class="cls-1" x="31.28" y="31.67" width="8.45" height="0.38"/><rect class="cls-1" x="31.28" y="32.05" width="8.45" height="0.38"/><rect class="cls-1" x="31.28" y="32.43" width="8.45" height="0.38"/><rect class="cls-1" x="31.28" y="32.81" width="8.45" height="0.38"/><rect class="cls-1" x="31.28" y="33.19" width="8.45" height="0.38"/><rect class="cls-1" x="31.28" y="33.57" width="8.45" height="0.38"/><rect class="cls-1" x="31.28" y="33.94" width="8.45" height="0.38"/><rect class="cls-1" x="31.28" y="34.32" width="8.45" height="0.38"/><rect class="cls-1" x="31.28" y="34.7" width="8.45" height="0.38"/><rect class="cls-1" x="31.28" y="35.08" width="8.45" height="0.38"/><rect class="cls-1" x="31.28" y="35.46" width="8.45" height="0.38"/><rect class="cls-1" x="31.28" y="35.83" width="8.45" height="0.38"/><rect class="cls-1" x="31.28" y="36.21" width="8.45" height="0.38"/><rect class="cls-1" x="31.28" y="36.59" width="8.45" height="0.38"/><rect class="cls-1" x="31.28" y="36.97" width="8.45" height="0.38"/><rect class="cls-1" x="31.28" y="37.35" width="8.45" height="0.38"/><rect class="cls-1" x="31.28" y="37.73" width="8.45" height="0.38"/><rect class="cls-1" x="31.28" y="38.1" width="8.45" height="0.38"/><rect class="cls-1" x="31.28" y="38.48" width="8.45" height="0.38"/><rect class="cls-1" x="31.28" y="38.86" width="8.45" height="0.38"/><rect class="cls-1" x="31.28" y="39.24" width="8.45" height="0.38"/><rect class="cls-1" x="31.28" y="39.62" width="8.45" height="0.11"/><rect class="cls-1" x="29.85" y="29.85" width="11.3" height="0.31"/><rect class="cls-1" x="29.85" y="30.16" width="11.3" height="0.38"/><rect class="cls-1" x="29.85" y="30.54" width="11.3" height="0.38"/><rect class="cls-1" x="29.85" y="30.92" width="11.3" height="0.38"/><rect class="cls-1" x="29.85" y="31.3" width="11.3" height="0.38"/><rect class="cls-1" x="29.85" y="31.67" width="11.3" height="0.38"/><rect class="cls-1" x="29.85" y="32.05" width="11.3" height="0.38"/><rect class="cls-1" x="29.85" y="32.43" width="11.3" height="0.38"/><rect class="cls-1" x="29.85" y="32.81" width="11.3" height="0.38"/><rect class="cls-1" x="29.85" y="33.19" width="11.3" height="0.38"/><rect class="cls-1" x="29.85" y="33.57" width="11.3" height="0.38"/><rect class="cls-1" x="29.85" y="33.94" width="11.3" height="0.38"/><rect class="cls-1" x="29.85" y="34.32" width="11.3" height="0.38"/><rect class="cls-1" x="29.85" y="34.7" width="11.3" height="0.38"/><rect class="cls-1" x="29.85" y="35.08" width="11.3" height="0.38"/><rect class="cls-1" x="29.85" y="35.46" width="11.3" height="0.38"/><rect class="cls-1" x="29.85" y="35.83" width="11.3" height="0.38"/><rect class="cls-1" x="29.85" y="36.21" width="11.3" height="0.38"/><rect class="cls-1" x="29.85" y="36.59" width="11.3" height="0.38"/><rect class="cls-1" x="29.85" y="36.97" width="11.3" height="0.38"/><rect class="cls-1" x="29.85" y="37.35" width="11.3" height="0.38"/><rect class="cls-1" x="29.85" y="37.73" width="11.3" height="0.38"/><rect class="cls-1" x="29.85" y="38.1" width="11.3" height="0.38"/><rect class="cls-1" x="29.85" y="38.48" width="11.3" height="0.38"/><rect class="cls-1" x="29.85" y="38.86" width="11.3" height="0.38"/><rect class="cls-1" x="29.85" y="39.24" width="11.3" height="0.38"/><rect class="cls-1" x="29.85" y="39.62" width="11.3" height="0.38"/><rect class="cls-1" x="29.85" y="40" width="11.3" height="0.38"/><rect class="cls-1" x="29.85" y="40.37" width="11.3" height="0.38"/><rect class="cls-1" x="29.85" y="40.75" width="11.3" height="0.38"/><rect class="cls-1" x="29.85" y="41.13" width="11.3" height="0.02"/></g><path class="cls-5" d="M35.5,29.85a5.67,5.67,0,0,0-5.65,5.65,5.65,5.65,0,0,0,11.3,0,5.67,5.67,0,0,0-5.65-5.65Zm0,9.87a4.23,4.23,0,1,1,4.22-4.22A4.22,4.22,0,0,1,35.5,39.72Z"/><path class="cls-3" d="M58.15,46.72a2.25,2.25,0,0,0-3.84-1.59A24.52,24.52,0,0,0,52,48a3.36,3.36,0,0,0-.71-.08,3.15,3.15,0,0,0-.92.13c-.3-.62-.72-1.36-1.21-2.22C47.57,43,45.35,39.12,45.35,35.5S47.57,28,49.18,25.16c.49-.86.91-1.6,1.21-2.22a3.15,3.15,0,0,0,.92.13A3.36,3.36,0,0,0,52,23a25.82,25.82,0,0,0,2.29,2.89,2.25,2.25,0,1,0,3.18-3.19,26.84,26.84,0,0,0-2.88-2.28,3.4,3.4,0,0,0-4-4,26.35,26.35,0,0,0-2.28-2.88,2.25,2.25,0,0,0-3.84,1.59,2.18,2.18,0,0,0,.66,1.59A24.52,24.52,0,0,0,48,19a3.36,3.36,0,0,0-.08.71,3.15,3.15,0,0,0,.13.92c-.63.3-1.36.71-2.22,1.21C43,23.43,39.12,25.65,35.5,25.65S28,23.43,25.16,21.81c-.84-.47-1.58-.9-2.22-1.2a3.15,3.15,0,0,0,.13-.92A3.36,3.36,0,0,0,23,19a25.82,25.82,0,0,0,2.89-2.29,2.25,2.25,0,0,0-3.19-3.18,26.84,26.84,0,0,0-2.28,2.88,3.4,3.4,0,0,0-4,4,26.35,26.35,0,0,0-2.88,2.28,2.25,2.25,0,0,0,1.59,3.84h0a2.22,2.22,0,0,0,1.59-.66A24.52,24.52,0,0,0,19,23a3.36,3.36,0,0,0,.71.08,3.15,3.15,0,0,0,.92-.13c.3.62.72,1.36,1.21,2.22,1.61,2.83,3.83,6.72,3.83,10.34S23.43,43,21.82,45.84c-.5.87-.91,1.6-1.21,2.22a3.15,3.15,0,0,0-.92-.13A3.36,3.36,0,0,0,19,48a25.82,25.82,0,0,0-2.29-2.89,2.25,2.25,0,0,0-3.18,3.19,26.84,26.84,0,0,0,2.88,2.28,3.4,3.4,0,0,0,4,4,26.35,26.35,0,0,0,2.28,2.88,2.25,2.25,0,0,0,3.84-1.59,2.18,2.18,0,0,0-.66-1.59A24.52,24.52,0,0,0,23,52a3.36,3.36,0,0,0,.08-.71,3.15,3.15,0,0,0-.13-.92c.63-.3,1.36-.72,2.22-1.21,2.84-1.61,6.72-3.83,10.34-3.83S43,47.57,45.84,49.19c.86.48,1.59.9,2.22,1.2a3.15,3.15,0,0,0-.13.92A3.36,3.36,0,0,0,48,52a25.82,25.82,0,0,0-2.89,2.29,2.25,2.25,0,0,0,1.59,3.84h0a2.27,2.27,0,0,0,1.59-.66,26.84,26.84,0,0,0,2.28-2.88,3.4,3.4,0,0,0,4-4,26.35,26.35,0,0,0,2.88-2.28A2.22,2.22,0,0,0,58.15,46.72Zm-5-25.24a4.23,4.23,0,0,0,.44-.51,34,34,0,0,1,3.59,2.86,1.2,1.2,0,0,1,0,1.68,1.2,1.2,0,0,1-1.69,0,33.57,33.57,0,0,1-2.85-3.58A5.47,5.47,0,0,0,53.1,21.48Zm-3.17-3.17a2,2,0,1,1-.57,1.38A1.94,1.94,0,0,1,49.93,18.31Zm-4.29-2.72a1.1,1.1,0,0,1-.32-.78,1.08,1.08,0,0,1,.32-.78,1.11,1.11,0,0,1,.78-.33,1.09,1.09,0,0,1,.78.33,30.2,30.2,0,0,1,2.65,3.32,3.72,3.72,0,0,0-.48.41c-.14.15-.28.31-.41.47A32.31,32.31,0,0,1,45.64,15.59Zm-30,9.71a1.07,1.07,0,0,1-.76.32,1,1,0,0,1-.76-.32,1.05,1.05,0,0,1,0-1.51,30.31,30.31,0,0,1,3.23-2.57,3.39,3.39,0,0,0,.4.45,3.47,3.47,0,0,0,.46.4A29.55,29.55,0,0,1,15.6,25.3Zm5.47-4.23a2,2,0,1,1,.57-1.38A1.94,1.94,0,0,1,21.07,21.07Zm.16-3.77a30.45,30.45,0,0,1,2.55-3.21,1.08,1.08,0,0,1,.76-.31,1.06,1.06,0,0,1,.75.31,1.09,1.09,0,0,1,.32.76,1.07,1.07,0,0,1-.32.75,29.21,29.21,0,0,1-3.21,2.55,4.19,4.19,0,0,0-.39-.45A4.25,4.25,0,0,0,21.23,17.3Zm-3.54,32a4.19,4.19,0,0,0-.39.45,29.27,29.27,0,0,1-3.2-2.54,1.06,1.06,0,1,1,1.5-1.51,30,30,0,0,1,2.55,3.2A3.47,3.47,0,0,0,17.69,49.31Zm3.38,3.38a2,2,0,1,1,.57-1.38A1.94,1.94,0,0,1,21.07,52.69Zm4.27,2.72a1.07,1.07,0,0,1,.32.77,1.1,1.1,0,0,1-.32.77,1.07,1.07,0,0,1-.77.32,1.1,1.1,0,0,1-.78-.32,31.52,31.52,0,0,1-2.61-3.28,4.49,4.49,0,0,0,.46-.41,3.63,3.63,0,0,0,.41-.47A31.7,31.7,0,0,1,25.34,55.41ZM46.55,48c-3-1.7-7-4-11-4s-8.07,2.33-11,4c-.77.44-1.56.88-2.18,1.18l-.19-.21-.21-.19c.28-.6.7-1.33,1.18-2.18,1.7-3,4-7.06,4-11s-2.33-8.07-4-11c-.48-.85-.9-1.58-1.18-2.18l.21-.19.19-.21c.61.29,1.38.73,2.18,1.18,3,1.7,7.05,4,11.05,4s8.07-2.33,11-4c.8-.45,1.57-.89,2.18-1.18l.19.21.21.19c-.28.6-.7,1.33-1.18,2.18-1.7,3-4,7.06-4,11.05s2.33,8.07,4,11c.48.85.9,1.58,1.18,2.18l-.21.19-.19.21C48.12,48.84,47.35,48.4,46.55,48Zm.66,9a1.12,1.12,0,0,1-1.55,0,1.1,1.1,0,0,1-.32-.78,1.07,1.07,0,0,1,.32-.77A30.9,30.9,0,0,1,49,52.79a3.63,3.63,0,0,0,.41.47,4.49,4.49,0,0,0,.46.41A32,32,0,0,1,47.21,57Zm5.48-4.27a2,2,0,1,1,.57-1.38A1.94,1.94,0,0,1,52.69,52.69Zm4.19-5.47a30,30,0,0,1-3.16,2.52,3.39,3.39,0,0,0-.4-.45,5.34,5.34,0,0,0-.44-.39,28,28,0,0,1,2.52-3.17,1,1,0,0,1,1.48,0,1.06,1.06,0,0,1,.31.75A1,1,0,0,1,56.88,47.22Z"/><g class="cls-6"><rect class="cls-1" x="53.34" y="45.89" width="3.38" height="0.16"/><rect class="cls-1" x="53.34" y="46.05" width="3.38" height="0.38"/><rect class="cls-1" x="53.34" y="46.43" width="3.38" height="0.38"/><rect class="cls-1" x="53.34" y="46.8" width="3.38" height="0.38"/><rect class="cls-1" x="53.34" y="47.18" width="3.38" height="0.38"/><rect class="cls-1" x="53.34" y="47.56" width="3.38" height="0.38"/><rect class="cls-1" x="53.34" y="47.94" width="3.38" height="0.38"/><rect class="cls-1" x="53.34" y="48.32" width="3.38" height="0.38"/><rect class="cls-1" x="53.34" y="48.7" width="3.38" height="0.38"/><rect class="cls-1" x="53.34" y="49.07" width="3.38" height="0.2"/><rect class="cls-1" x="49.36" y="49.36" width="3.9" height="0.1"/><rect class="cls-1" x="49.36" y="49.45" width="3.9" height="0.38"/><rect class="cls-1" x="49.36" y="49.83" width="3.9" height="0.38"/><rect class="cls-1" x="49.36" y="50.21" width="3.9" height="0.38"/><rect class="cls-1" x="49.36" y="50.59" width="3.9" height="0.38"/><rect class="cls-1" x="49.36" y="50.97" width="3.9" height="0.38"/><rect class="cls-1" x="49.36" y="51.34" width="3.9" height="0.38"/><rect class="cls-1" x="49.36" y="51.72" width="3.9" height="0.38"/><rect class="cls-1" x="49.36" y="52.1" width="3.9" height="0.38"/><rect class="cls-1" x="49.36" y="52.48" width="3.9" height="0.38"/><rect class="cls-1" x="49.36" y="52.86" width="3.9" height="0.38"/><rect class="cls-1" x="49.36" y="53.24" width="3.9" height="0.02"/><rect class="cls-1" x="45.89" y="53.34" width="3.38" height="0.27"/><rect class="cls-1" x="45.89" y="53.61" width="3.38" height="0.38"/><rect class="cls-1" x="45.89" y="53.99" width="3.38" height="0.38"/><rect class="cls-1" x="45.89" y="54.37" width="3.38" height="0.38"/><rect class="cls-1" x="45.89" y="54.75" width="3.38" height="0.38"/><rect class="cls-1" x="45.89" y="55.13" width="3.38" height="0.38"/><rect class="cls-1" x="45.89" y="55.5" width="3.38" height="0.38"/><rect class="cls-1" x="45.89" y="55.88" width="3.38" height="0.84"/><rect class="cls-1" x="21.87" y="21.87" width="27.26" height="0.35"/><rect class="cls-1" x="21.87" y="22.22" width="27.26" height="0.38"/><rect class="cls-1" x="21.87" y="22.6" width="27.26" height="0.38"/><rect class="cls-1" x="21.87" y="22.97" width="27.26" height="0.38"/><rect class="cls-1" x="21.87" y="23.35" width="27.26" height="0.38"/><rect class="cls-1" x="21.87" y="23.73" width="27.26" height="0.38"/><rect class="cls-1" x="21.87" y="24.11" width="27.26" height="0.38"/><rect class="cls-1" x="21.87" y="24.49" width="27.26" height="0.38"/><rect class="cls-1" x="21.87" y="24.86" width="27.26" height="0.38"/><rect class="cls-1" x="21.87" y="25.24" width="27.26" height="0.38"/><rect class="cls-1" x="21.87" y="25.62" width="27.26" height="0.38"/><rect class="cls-1" x="21.87" y="26" width="27.26" height="0.38"/><rect class="cls-1" x="21.87" y="26.38" width="27.26" height="0.38"/><rect class="cls-1" x="21.87" y="26.76" width="27.26" height="0.38"/><rect class="cls-1" x="21.87" y="27.13" width="27.26" height="0.38"/><rect class="cls-1" x="21.87" y="27.51" width="27.26" height="0.38"/><rect class="cls-1" x="21.87" y="27.89" width="27.26" height="0.38"/><rect class="cls-1" x="21.87" y="28.27" width="27.26" height="0.38"/><rect class="cls-1" x="21.87" y="28.65" width="27.26" height="0.38"/><rect class="cls-1" x="21.87" y="29.03" width="27.26" height="0.38"/><rect class="cls-1" x="21.87" y="29.4" width="27.26" height="0.38"/><rect class="cls-1" x="21.87" y="29.78" width="27.26" height="0.38"/><rect class="cls-1" x="21.87" y="30.16" width="27.26" height="0.38"/><rect class="cls-1" x="21.87" y="30.54" width="27.26" height="0.38"/><rect class="cls-1" x="21.87" y="30.92" width="27.26" height="0.38"/><rect class="cls-1" x="21.87" y="31.3" width="27.26" height="0.38"/><rect class="cls-1" x="21.87" y="31.67" width="27.26" height="0.38"/><rect class="cls-1" x="21.87" y="32.05" width="27.26" height="0.38"/><rect class="cls-1" x="21.87" y="32.43" width="27.26" height="0.38"/><rect class="cls-1" x="21.87" y="32.81" width="27.26" height="0.38"/><rect class="cls-1" x="21.87" y="33.19" width="27.26" height="0.38"/><rect class="cls-1" x="21.87" y="33.57" width="27.26" height="0.38"/><rect class="cls-1" x="21.87" y="33.94" width="27.26" height="0.38"/><rect class="cls-1" x="21.87" y="34.32" width="27.26" height="0.38"/><rect class="cls-1" x="21.87" y="34.7" width="27.26" height="0.38"/><rect class="cls-1" x="21.87" y="35.08" width="27.26" height="0.38"/><rect class="cls-1" x="21.87" y="35.46" width="27.26" height="0.38"/><rect class="cls-1" x="21.87" y="35.83" width="27.26" height="0.38"/><rect class="cls-1" x="21.87" y="36.21" width="27.26" height="0.38"/><rect class="cls-1" x="21.87" y="36.59" width="27.26" height="0.38"/><rect class="cls-1" x="21.87" y="36.97" width="27.26" height="0.38"/><rect class="cls-1" x="21.87" y="37.35" width="27.26" height="0.38"/><rect class="cls-1" x="21.87" y="37.73" width="27.26" height="0.38"/><rect class="cls-1" x="21.87" y="38.1" width="27.26" height="0.38"/><rect class="cls-1" x="21.87" y="38.48" width="27.26" height="0.38"/><rect class="cls-1" x="21.87" y="38.86" width="27.26" height="0.38"/><rect class="cls-1" x="21.87" y="39.24" width="27.26" height="0.38"/><rect class="cls-1" x="21.87" y="39.62" width="27.26" height="0.38"/><rect class="cls-1" x="21.87" y="40" width="27.26" height="0.38"/><rect class="cls-1" x="21.87" y="40.37" width="27.26" height="0.38"/><rect class="cls-1" x="21.87" y="40.75" width="27.26" height="0.38"/><rect class="cls-1" x="21.87" y="41.13" width="27.26" height="0.38"/><rect class="cls-1" x="21.87" y="41.51" width="27.26" height="0.38"/><rect class="cls-1" x="21.87" y="41.89" width="27.26" height="0.38"/><rect class="cls-1" x="21.87" y="42.27" width="27.26" height="0.38"/><rect class="cls-1" x="21.87" y="42.64" width="27.26" height="0.38"/><rect class="cls-1" x="21.87" y="43.02" width="27.26" height="0.38"/><rect class="cls-1" x="21.87" y="43.4" width="27.26" height="0.38"/><rect class="cls-1" x="21.87" y="43.78" width="27.26" height="0.38"/><rect class="cls-1" x="21.87" y="44.16" width="27.26" height="0.38"/><rect class="cls-1" x="21.87" y="44.53" width="27.26" height="0.38"/><rect class="cls-1" x="21.87" y="44.91" width="27.26" height="0.38"/><rect class="cls-1" x="21.87" y="45.29" width="27.26" height="0.38"/><rect class="cls-1" x="21.87" y="45.67" width="27.26" height="0.38"/><rect class="cls-1" x="21.87" y="46.05" width="27.26" height="0.38"/><rect class="cls-1" x="21.87" y="46.43" width="27.26" height="0.38"/><rect class="cls-1" x="21.87" y="46.8" width="27.26" height="0.38"/><rect class="cls-1" x="21.87" y="47.18" width="27.26" height="0.38"/><rect class="cls-1" x="21.87" y="47.56" width="27.26" height="0.38"/><rect class="cls-1" x="21.87" y="47.94" width="27.26" height="0.38"/><rect class="cls-1" x="21.87" y="48.32" width="27.26" height="0.38"/><rect class="cls-1" x="21.87" y="48.7" width="27.26" height="0.38"/><rect class="cls-1" x="21.87" y="49.07" width="27.26" height="0.06"/><rect class="cls-1" x="21.73" y="53.34" width="3.38" height="0.27"/><rect class="cls-1" x="21.73" y="53.61" width="3.38" height="0.38"/><rect class="cls-1" x="21.73" y="53.99" width="3.38" height="0.38"/><rect class="cls-1" x="21.73" y="54.37" width="3.38" height="0.38"/><rect class="cls-1" x="21.73" y="54.75" width="3.38" height="0.38"/><rect class="cls-1" x="21.73" y="55.13" width="3.38" height="0.38"/><rect class="cls-1" x="21.73" y="55.5" width="3.38" height="0.38"/><rect class="cls-1" x="21.73" y="55.88" width="3.38" height="0.84"/><rect class="cls-1" x="17.55" y="49.36" width="4.09" height="0.1"/><rect class="cls-1" x="17.55" y="49.45" width="4.09" height="0.38"/><rect class="cls-1" x="17.55" y="49.83" width="4.09" height="0.38"/><rect class="cls-1" x="17.55" y="50.21" width="4.09" height="0.38"/><rect class="cls-1" x="17.55" y="50.59" width="4.09" height="0.38"/><rect class="cls-1" x="17.55" y="50.97" width="4.09" height="0.38"/><rect class="cls-1" x="17.55" y="51.34" width="4.09" height="0.38"/><rect class="cls-1" x="17.55" y="51.72" width="4.09" height="0.38"/><rect class="cls-1" x="17.55" y="52.1" width="4.09" height="0.38"/><rect class="cls-1" x="17.55" y="52.48" width="4.09" height="0.38"/><rect class="cls-1" x="17.55" y="52.86" width="4.09" height="0.38"/><rect class="cls-1" x="17.55" y="53.24" width="4.09" height="0.02"/><rect class="cls-1" x="14.2" y="45.89" width="3.46" height="0.16"/><rect class="cls-1" x="14.2" y="46.05" width="3.46" height="0.38"/><rect class="cls-1" x="14.2" y="46.43" width="3.46" height="0.38"/><rect class="cls-1" x="14.2" y="46.8" width="3.46" height="0.38"/><rect class="cls-1" x="14.2" y="47.18" width="3.46" height="0.38"/><rect class="cls-1" x="14.2" y="47.56" width="3.46" height="0.38"/><rect class="cls-1" x="14.2" y="47.94" width="3.46" height="0.38"/><rect class="cls-1" x="14.2" y="48.32" width="3.46" height="0.38"/><rect class="cls-1" x="14.2" y="48.7" width="3.46" height="0.38"/><rect class="cls-1" x="14.2" y="49.07" width="3.46" height="0.2"/><rect class="cls-1" x="21.73" y="14.28" width="3.38" height="1.13"/><rect class="cls-1" x="21.73" y="15.41" width="3.38" height="0.38"/><rect class="cls-1" x="21.73" y="15.79" width="3.38" height="0.38"/><rect class="cls-1" x="21.73" y="16.16" width="3.38" height="0.38"/><rect class="cls-1" x="21.73" y="16.54" width="3.38" height="0.38"/><rect class="cls-1" x="21.73" y="16.92" width="3.38" height="0.38"/><rect class="cls-1" x="21.73" y="17.3" width="3.38" height="0.36"/><rect class="cls-1" x="17.74" y="17.74" width="3.9" height="0.31"/><rect class="cls-1" x="17.74" y="18.06" width="3.9" height="0.38"/><rect class="cls-1" x="17.74" y="18.43" width="3.9" height="0.38"/><rect class="cls-1" x="17.74" y="18.81" width="3.9" height="0.38"/><rect class="cls-1" x="17.74" y="19.19" width="3.9" height="0.38"/><rect class="cls-1" x="17.74" y="19.57" width="3.9" height="0.38"/><rect class="cls-1" x="17.74" y="19.95" width="3.9" height="0.38"/><rect class="cls-1" x="17.74" y="20.33" width="3.9" height="0.38"/><rect class="cls-1" x="17.74" y="20.7" width="3.9" height="0.38"/><rect class="cls-1" x="17.74" y="21.08" width="3.9" height="0.38"/><rect class="cls-1" x="17.74" y="21.46" width="3.9" height="0.18"/><rect class="cls-1" x="14.27" y="21.73" width="3.38" height="0.11"/><rect class="cls-1" x="14.27" y="21.84" width="3.38" height="0.38"/><rect class="cls-1" x="14.27" y="22.22" width="3.38" height="0.38"/><rect class="cls-1" x="14.27" y="22.6" width="3.38" height="0.38"/><rect class="cls-1" x="14.27" y="22.97" width="3.38" height="0.38"/><rect class="cls-1" x="14.27" y="23.35" width="3.38" height="0.38"/><rect class="cls-1" x="14.27" y="23.73" width="3.38" height="0.38"/><rect class="cls-1" x="14.27" y="24.11" width="3.38" height="0.38"/><rect class="cls-1" x="14.27" y="24.49" width="3.38" height="0.38"/><rect class="cls-1" x="14.27" y="24.86" width="3.38" height="0.24"/><rect class="cls-1" x="45.89" y="14.27" width="3.38" height="1.13"/><rect class="cls-1" x="45.89" y="15.41" width="3.38" height="0.38"/><rect class="cls-1" x="45.89" y="15.79" width="3.38" height="0.38"/><rect class="cls-1" x="45.89" y="16.16" width="3.38" height="0.38"/><rect class="cls-1" x="45.89" y="16.54" width="3.38" height="0.38"/><rect class="cls-1" x="45.89" y="16.92" width="3.38" height="0.38"/><rect class="cls-1" x="45.89" y="17.3" width="3.38" height="0.36"/><rect class="cls-1" x="49.36" y="17.74" width="4.09" height="0.32"/><rect class="cls-1" x="49.36" y="18.06" width="4.09" height="0.38"/><rect class="cls-1" x="49.36" y="18.43" width="4.09" height="0.38"/><rect class="cls-1" x="49.36" y="18.81" width="4.09" height="0.38"/><rect class="cls-1" x="49.36" y="19.19" width="4.09" height="0.38"/><rect class="cls-1" x="49.36" y="19.57" width="4.09" height="0.38"/><rect class="cls-1" x="49.36" y="19.95" width="4.09" height="0.38"/><rect class="cls-1" x="49.36" y="20.33" width="4.09" height="0.38"/><rect class="cls-1" x="49.36" y="20.7" width="4.09" height="0.38"/><rect class="cls-1" x="49.36" y="21.08" width="4.09" height="0.38"/><rect class="cls-1" x="49.36" y="21.46" width="4.09" height="0.18"/><rect class="cls-1" x="53.34" y="21.73" width="3.46" height="0.11"/><rect class="cls-1" x="53.34" y="21.84" width="3.46" height="0.38"/><rect class="cls-1" x="53.34" y="22.22" width="3.46" height="0.38"/><rect class="cls-1" x="53.34" y="22.6" width="3.46" height="0.38"/><rect class="cls-1" x="53.34" y="22.97" width="3.46" height="0.38"/><rect class="cls-1" x="53.34" y="23.35" width="3.46" height="0.38"/><rect class="cls-1" x="53.34" y="23.73" width="3.46" height="0.38"/><rect class="cls-1" x="53.34" y="24.11" width="3.46" height="0.38"/><rect class="cls-1" x="53.34" y="24.49" width="3.46" height="0.38"/><rect class="cls-1" x="53.34" y="24.86" width="3.46" height="0.25"/><rect class="cls-1" x="12.63" y="12.85" width="45.73" height="2.56"/><rect class="cls-1" x="12.63" y="15.41" width="45.73" height="0.38"/><rect class="cls-1" x="12.63" y="15.79" width="45.73" height="0.38"/><rect class="cls-1" x="12.63" y="16.16" width="45.73" height="0.38"/><rect class="cls-1" x="12.63" y="16.54" width="45.73" height="0.38"/><rect class="cls-1" x="12.63" y="16.92" width="45.73" height="0.38"/><rect class="cls-1" x="12.63" y="17.3" width="45.73" height="0.38"/><rect class="cls-1" x="12.63" y="17.68" width="45.73" height="0.38"/><rect class="cls-1" x="12.63" y="18.06" width="45.73" height="0.38"/><rect class="cls-1" x="12.63" y="18.43" width="45.73" height="0.38"/><rect class="cls-1" x="12.63" y="18.81" width="45.73" height="0.38"/><rect class="cls-1" x="12.63" y="19.19" width="45.73" height="0.38"/><rect class="cls-1" x="12.63" y="19.57" width="45.73" height="0.38"/><rect class="cls-1" x="12.63" y="19.95" width="45.73" height="0.38"/><rect class="cls-1" x="12.63" y="20.33" width="45.73" height="0.38"/><rect class="cls-1" x="12.63" y="20.7" width="45.73" height="0.38"/><rect class="cls-1" x="12.63" y="21.08" width="45.73" height="0.38"/><rect class="cls-1" x="12.63" y="21.46" width="45.73" height="0.38"/><rect class="cls-1" x="12.63" y="21.84" width="45.73" height="0.38"/><rect class="cls-1" x="12.63" y="22.22" width="45.73" height="0.38"/><rect class="cls-1" x="12.63" y="22.6" width="45.73" height="0.38"/><rect class="cls-1" x="12.63" y="22.97" width="45.73" height="0.38"/><rect class="cls-1" x="12.63" y="23.35" width="45.73" height="0.38"/><rect class="cls-1" x="12.63" y="23.73" width="45.73" height="0.38"/><rect class="cls-1" x="12.63" y="24.11" width="45.73" height="0.38"/><rect class="cls-1" x="12.63" y="24.49" width="45.73" height="0.38"/><rect class="cls-1" x="12.63" y="24.86" width="45.73" height="0.38"/><rect class="cls-1" x="12.63" y="25.24" width="45.73" height="0.38"/><rect class="cls-1" x="12.63" y="25.62" width="45.73" height="0.38"/><rect class="cls-1" x="12.63" y="26" width="45.73" height="0.38"/><rect class="cls-1" x="12.63" y="26.38" width="45.73" height="0.38"/><rect class="cls-1" x="12.63" y="26.76" width="45.73" height="0.38"/><rect class="cls-1" x="12.63" y="27.13" width="45.73" height="0.38"/><rect class="cls-1" x="12.63" y="27.51" width="45.73" height="0.38"/><rect class="cls-1" x="12.63" y="27.89" width="45.73" height="0.38"/><rect class="cls-1" x="12.63" y="28.27" width="45.73" height="0.38"/><rect class="cls-1" x="12.63" y="28.65" width="45.73" height="0.38"/><rect class="cls-1" x="12.63" y="29.03" width="45.73" height="0.38"/><rect class="cls-1" x="12.63" y="29.4" width="45.73" height="0.38"/><rect class="cls-1" x="12.63" y="29.78" width="45.73" height="0.38"/><rect class="cls-1" x="12.63" y="30.16" width="45.73" height="0.38"/><rect class="cls-1" x="12.63" y="30.54" width="45.73" height="0.38"/><rect class="cls-1" x="12.63" y="30.92" width="45.73" height="0.38"/><rect class="cls-1" x="12.63" y="31.3" width="45.73" height="0.38"/><rect class="cls-1" x="12.63" y="31.67" width="45.73" height="0.38"/><rect class="cls-1" x="12.63" y="32.05" width="45.73" height="0.38"/><rect class="cls-1" x="12.63" y="32.43" width="45.73" height="0.38"/><rect class="cls-1" x="12.63" y="32.81" width="45.73" height="0.38"/><rect class="cls-1" x="12.63" y="33.19" width="45.73" height="0.38"/><rect class="cls-1" x="12.63" y="33.57" width="45.73" height="0.38"/><rect class="cls-1" x="12.63" y="33.94" width="45.73" height="0.38"/><rect class="cls-1" x="12.63" y="34.32" width="45.73" height="0.38"/><rect class="cls-1" x="12.63" y="34.7" width="45.73" height="0.38"/><rect class="cls-1" x="12.63" y="35.08" width="45.73" height="0.38"/><rect class="cls-1" x="12.63" y="35.46" width="45.73" height="0.38"/><rect class="cls-1" x="12.63" y="35.83" width="45.73" height="0.38"/><rect class="cls-1" x="12.63" y="36.21" width="45.73" height="0.38"/><rect class="cls-1" x="12.63" y="36.59" width="45.73" height="0.38"/><rect class="cls-1" x="12.63" y="36.97" width="45.73" height="0.38"/><rect class="cls-1" x="12.63" y="37.35" width="45.73" height="0.38"/><rect class="cls-1" x="12.63" y="37.73" width="45.73" height="0.38"/><rect class="cls-1" x="12.63" y="38.1" width="45.73" height="0.38"/><rect class="cls-1" x="12.63" y="38.48" width="45.73" height="0.38"/><rect class="cls-1" x="12.63" y="38.86" width="45.73" height="0.38"/><rect class="cls-1" x="12.63" y="39.24" width="45.73" height="0.38"/><rect class="cls-1" x="12.63" y="39.62" width="45.73" height="0.38"/><rect class="cls-1" x="12.63" y="40" width="45.73" height="0.38"/><rect class="cls-1" x="12.63" y="40.37" width="45.73" height="0.38"/><rect class="cls-1" x="12.63" y="40.75" width="45.73" height="0.38"/><rect class="cls-1" x="12.63" y="41.13" width="45.73" height="0.38"/><rect class="cls-1" x="12.63" y="41.51" width="45.73" height="0.38"/><rect class="cls-1" x="12.63" y="41.89" width="45.73" height="0.38"/><rect class="cls-1" x="12.63" y="42.27" width="45.73" height="0.38"/><rect class="cls-1" x="12.63" y="42.64" width="45.73" height="0.38"/><rect class="cls-1" x="12.63" y="43.02" width="45.73" height="0.38"/><rect class="cls-1" x="12.63" y="43.4" width="45.73" height="0.38"/><rect class="cls-1" x="12.63" y="43.78" width="45.73" height="0.38"/><rect class="cls-1" x="12.63" y="44.16" width="45.73" height="0.38"/><rect class="cls-1" x="12.63" y="44.53" width="45.73" height="0.38"/><rect class="cls-1" x="12.63" y="44.91" width="45.73" height="0.38"/><rect class="cls-1" x="12.63" y="45.29" width="45.73" height="0.38"/><rect class="cls-1" x="12.63" y="45.67" width="45.73" height="0.38"/><rect class="cls-1" x="12.63" y="46.05" width="45.73" height="0.38"/><rect class="cls-1" x="12.63" y="46.43" width="45.73" height="0.38"/><rect class="cls-1" x="12.63" y="46.8" width="45.73" height="0.38"/><rect class="cls-1" x="12.63" y="47.18" width="45.73" height="0.38"/><rect class="cls-1" x="12.63" y="47.56" width="45.73" height="0.38"/><rect class="cls-1" x="12.63" y="47.94" width="45.73" height="0.38"/><rect class="cls-1" x="12.63" y="48.32" width="45.73" height="0.38"/><rect class="cls-1" x="12.63" y="48.7" width="45.73" height="0.38"/><rect class="cls-1" x="12.63" y="49.07" width="45.73" height="0.38"/><rect class="cls-1" x="12.63" y="49.45" width="45.73" height="0.38"/><rect class="cls-1" x="12.63" y="49.83" width="45.73" height="0.38"/><rect class="cls-1" x="12.63" y="50.21" width="45.73" height="0.38"/><rect class="cls-1" x="12.63" y="50.59" width="45.73" height="0.38"/><rect class="cls-1" x="12.63" y="50.97" width="45.73" height="0.38"/><rect class="cls-1" x="12.63" y="51.34" width="45.73" height="0.38"/><rect class="cls-1" x="12.63" y="51.72" width="45.73" height="0.38"/><rect class="cls-1" x="12.63" y="52.1" width="45.73" height="0.38"/><rect class="cls-1" x="12.63" y="52.48" width="45.73" height="0.38"/><rect class="cls-1" x="12.63" y="52.86" width="45.73" height="0.38"/><rect class="cls-1" x="12.63" y="53.24" width="45.73" height="0.38"/><rect class="cls-1" x="12.63" y="53.61" width="45.73" height="0.38"/><rect class="cls-1" x="12.63" y="53.99" width="45.73" height="0.38"/><rect class="cls-1" x="12.63" y="54.37" width="45.73" height="0.38"/><rect class="cls-1" x="12.63" y="54.75" width="45.73" height="0.38"/><rect class="cls-1" x="12.63" y="55.13" width="45.73" height="0.38"/><rect class="cls-1" x="12.63" y="55.5" width="45.73" height="0.38"/><rect class="cls-1" x="12.63" y="55.88" width="45.73" height="2.27"/></g><path class="cls-5" d="M58.15,46.72a2.25,2.25,0,0,0-3.84-1.59A24.52,24.52,0,0,0,52,48a3.36,3.36,0,0,0-.71-.08,3.15,3.15,0,0,0-.92.13c-.3-.62-.72-1.36-1.21-2.22C47.57,43,45.35,39.12,45.35,35.5S47.57,28,49.18,25.16c.49-.86.91-1.6,1.21-2.22a3.15,3.15,0,0,0,.92.13A3.36,3.36,0,0,0,52,23a25.82,25.82,0,0,0,2.29,2.89,2.25,2.25,0,1,0,3.18-3.19,26.84,26.84,0,0,0-2.88-2.28,3.4,3.4,0,0,0-4-4,26.35,26.35,0,0,0-2.28-2.88,2.25,2.25,0,0,0-3.84,1.59,2.18,2.18,0,0,0,.66,1.59A24.52,24.52,0,0,0,48,19a3.36,3.36,0,0,0-.08.71,3.15,3.15,0,0,0,.13.92c-.63.3-1.36.71-2.22,1.21C43,23.43,39.12,25.65,35.5,25.65S28,23.43,25.16,21.81c-.84-.47-1.58-.9-2.22-1.2a3.15,3.15,0,0,0,.13-.92A3.36,3.36,0,0,0,23,19a25.82,25.82,0,0,0,2.89-2.29,2.25,2.25,0,0,0-3.19-3.18,26.84,26.84,0,0,0-2.28,2.88,3.4,3.4,0,0,0-4,4,26.35,26.35,0,0,0-2.88,2.28,2.25,2.25,0,0,0,1.59,3.84h0a2.22,2.22,0,0,0,1.59-.66A24.52,24.52,0,0,0,19,23a3.36,3.36,0,0,0,.71.08,3.15,3.15,0,0,0,.92-.13c.3.62.72,1.36,1.21,2.22,1.61,2.83,3.83,6.72,3.83,10.34S23.43,43,21.82,45.84c-.5.87-.91,1.6-1.21,2.22a3.15,3.15,0,0,0-.92-.13A3.36,3.36,0,0,0,19,48a25.82,25.82,0,0,0-2.29-2.89,2.25,2.25,0,0,0-3.18,3.19,26.84,26.84,0,0,0,2.88,2.28,3.4,3.4,0,0,0,4,4,26.35,26.35,0,0,0,2.28,2.88,2.25,2.25,0,0,0,3.84-1.59,2.18,2.18,0,0,0-.66-1.59A24.52,24.52,0,0,0,23,52a3.36,3.36,0,0,0,.08-.71,3.15,3.15,0,0,0-.13-.92c.63-.3,1.36-.72,2.22-1.21,2.84-1.61,6.72-3.83,10.34-3.83S43,47.57,45.84,49.19c.86.48,1.59.9,2.22,1.2a3.15,3.15,0,0,0-.13.92A3.36,3.36,0,0,0,48,52a25.82,25.82,0,0,0-2.89,2.29,2.25,2.25,0,0,0,1.59,3.84h0a2.27,2.27,0,0,0,1.59-.66,26.84,26.84,0,0,0,2.28-2.88,3.4,3.4,0,0,0,4-4,26.35,26.35,0,0,0,2.88-2.28A2.22,2.22,0,0,0,58.15,46.72Zm-5-25.24a4.23,4.23,0,0,0,.44-.51,34,34,0,0,1,3.59,2.86,1.2,1.2,0,0,1,0,1.68,1.2,1.2,0,0,1-1.69,0,33.57,33.57,0,0,1-2.85-3.58A5.47,5.47,0,0,0,53.1,21.48Zm-3.17-3.17a2,2,0,1,1-.57,1.38A1.94,1.94,0,0,1,49.93,18.31Zm-4.29-2.72a1.1,1.1,0,0,1-.32-.78,1.08,1.08,0,0,1,.32-.78,1.11,1.11,0,0,1,.78-.33,1.09,1.09,0,0,1,.78.33,30.2,30.2,0,0,1,2.65,3.32,3.72,3.72,0,0,0-.48.41c-.14.15-.28.31-.41.47A32.31,32.31,0,0,1,45.64,15.59Zm-30,9.71a1.07,1.07,0,0,1-.76.32,1,1,0,0,1-.76-.32,1.05,1.05,0,0,1,0-1.51,30.31,30.31,0,0,1,3.23-2.57,3.39,3.39,0,0,0,.4.45,3.47,3.47,0,0,0,.46.4A29.55,29.55,0,0,1,15.6,25.3Zm5.47-4.23a2,2,0,1,1,.57-1.38A1.94,1.94,0,0,1,21.07,21.07Zm.16-3.77a30.45,30.45,0,0,1,2.55-3.21,1.08,1.08,0,0,1,.76-.31,1.06,1.06,0,0,1,.75.31,1.09,1.09,0,0,1,.32.76,1.07,1.07,0,0,1-.32.75,29.21,29.21,0,0,1-3.21,2.55,4.19,4.19,0,0,0-.39-.45A4.25,4.25,0,0,0,21.23,17.3Zm-3.54,32a4.19,4.19,0,0,0-.39.45,29.27,29.27,0,0,1-3.2-2.54,1.06,1.06,0,1,1,1.5-1.51,30,30,0,0,1,2.55,3.2A3.47,3.47,0,0,0,17.69,49.31Zm3.38,3.38a2,2,0,1,1,.57-1.38A1.94,1.94,0,0,1,21.07,52.69Zm4.27,2.72a1.07,1.07,0,0,1,.32.77,1.1,1.1,0,0,1-.32.77,1.07,1.07,0,0,1-.77.32,1.1,1.1,0,0,1-.78-.32,31.52,31.52,0,0,1-2.61-3.28,4.49,4.49,0,0,0,.46-.41,3.63,3.63,0,0,0,.41-.47A31.7,31.7,0,0,1,25.34,55.41ZM46.55,48c-3-1.7-7-4-11-4s-8.07,2.33-11,4c-.77.44-1.56.88-2.18,1.18l-.19-.21-.21-.19c.28-.6.7-1.33,1.18-2.18,1.7-3,4-7.06,4-11s-2.33-8.07-4-11c-.48-.85-.9-1.58-1.18-2.18l.21-.19.19-.21c.61.29,1.38.73,2.18,1.18,3,1.7,7.05,4,11.05,4s8.07-2.33,11-4c.8-.45,1.57-.89,2.18-1.18l.19.21.21.19c-.28.6-.7,1.33-1.18,2.18-1.7,3-4,7.06-4,11.05s2.33,8.07,4,11c.48.85.9,1.58,1.18,2.18l-.21.19-.19.21C48.12,48.84,47.35,48.4,46.55,48Zm.66,9a1.12,1.12,0,0,1-1.55,0,1.1,1.1,0,0,1-.32-.78,1.07,1.07,0,0,1,.32-.77A30.9,30.9,0,0,1,49,52.79a3.63,3.63,0,0,0,.41.47,4.49,4.49,0,0,0,.46.41A32,32,0,0,1,47.21,57Zm5.48-4.27a2,2,0,1,1,.57-1.38A1.94,1.94,0,0,1,52.69,52.69Zm4.19-5.47a30,30,0,0,1-3.16,2.52,3.39,3.39,0,0,0-.4-.45,5.34,5.34,0,0,0-.44-.39,28,28,0,0,1,2.52-3.17,1,1,0,0,1,1.48,0,1.06,1.06,0,0,1,.31.75A1,1,0,0,1,56.88,47.22Z"/></g></g></svg>