<svg xmlns="http://www.w3.org/2000/svg" viewBox="0 0 12.01 11.75"><defs><style>.cls-1,.cls-2{fill:#60605f;}.cls-2{fill-rule:evenodd;}.cls-3{fill:none;stroke:#60605f;stroke-miterlimit:10;}</style></defs><g id="Camada_2" data-name="Camada 2"><g id="Camada_1-2" data-name="Camada 1"><path class="cls-1" d="M5.14,6.47l.14-.09.34.52L5.48,7Z"/><path class="cls-1" d="M4.61,4.6l.17,0,.11.62-.16,0Z"/><path class="cls-1" d="M4.66,2.73h.17l0,.63H4.7Z"/><path class="cls-1" d="M4.18.64,4.32.56l.3.55-.15.08Z"/><path class="cls-1" d="M2.66.17V0h.63V.16Z"/><path class="cls-1" d="M1.24.57,1.19.41l.6-.19,0,.16Z"/><path class="cls-1" d="M.13,1.51,0,1.41.37.91.51,1Z"/><path class="cls-1" d="M.4,3.94.24,4l-.18-.6.16,0Z"/><path class="cls-1" d="M1.05,5.76l-.16,0L.71,5.2l.16,0Z"/><path class="cls-1" d="M1.25,7.68H1.09L1,7.06h.17Z"/><path class="cls-1" d="M1.21,9.74H1.05L1,9.13l.17,0Z"/><path class="cls-2" d="M6.36,9.38,7,8.66l4.2-4.33c.19-.2.37-.41.55-.63a.87.87,0,0,0-.09-1.24.87.87,0,0,0-1.26,0,4.16,4.16,0,0,0-.42.42C9.38,3.59,8.74,4.3,8.11,5c-.88,1-1.75,2-2.63,3.05l-.09.14A3.26,3.26,0,0,1,6.36,9.38ZM3.51,11.75c.14,0,.36,0,.59-.05a3.62,3.62,0,0,0,1.49-.44A1.26,1.26,0,0,0,6.24,10,2.2,2.2,0,0,0,5.4,8.51,1.07,1.07,0,0,0,4,8.42a3.61,3.61,0,0,0-1,.91,4.57,4.57,0,0,1-.38.49,1.42,1.42,0,0,1-1.45.45l-.21,0c-.21,0-.32.17-.21.34a1.54,1.54,0,0,0,.36.4A4.18,4.18,0,0,0,3.51,11.75Z"/><path class="cls-2" d="M6.36,9.38a3.26,3.26,0,0,0-1-1.17l.09-.14c.88-1,1.75-2,2.63-3.05C8.74,4.3,9.38,3.59,10,2.88a4.16,4.16,0,0,1,.42-.42.87.87,0,0,1,1.26,0,.87.87,0,0,1,.09,1.24c-.18.22-.36.43-.55.63L7,8.66Z"/><path class="cls-2" d="M3.51,11.75A4.18,4.18,0,0,1,1.1,11a1.54,1.54,0,0,1-.36-.4c-.11-.17,0-.34.21-.34l.21,0a1.42,1.42,0,0,0,1.45-.45A4.57,4.57,0,0,0,3,9.33a3.61,3.61,0,0,1,1-.91,1.07,1.07,0,0,1,1.45.09A2.2,2.2,0,0,1,6.24,10a1.26,1.26,0,0,1-.65,1.29,3.62,3.62,0,0,1-1.49.44C3.87,11.73,3.65,11.74,3.51,11.75Z"/><line class="cls-3" x1="8.7" y1="9.96" x2="11.37" y2="9.96"/></g></g></svg>