<svg xmlns="http://www.w3.org/2000/svg" viewBox="0 0 11.91 11.65"><defs><style>.cls-1,.cls-2{fill:#60605f;}.cls-2{fill-rule:evenodd;}.cls-3{fill:none;stroke:#60605f;stroke-miterlimit:10;}</style></defs><g id="Camada_2" data-name="Camada 2"><g id="Camada_1-2" data-name="Camada 1"><path class="cls-1" d="M5.1,6.41l.13-.09.35.52-.14.09Z"/><path class="cls-1" d="M4.58,4.57l.16,0,.11.61-.16,0Z"/><path class="cls-1" d="M4.62,2.71h.17l0,.62H4.67Z"/><path class="cls-1" d="M4.14.64,4.29.56l.29.55-.14.07Z"/><path class="cls-1" d="M2.64.17V0h.62V.16Z"/><path class="cls-1" d="M1.23.56,1.18.41,1.77.22l.05.16Z"/><path class="cls-1" d="M.13,1.5,0,1.4.37.9.5,1Z"/><path class="cls-1" d="M.39,3.91.23,4l-.17-.6.16,0Z"/><path class="cls-1" d="M1,5.71l-.16,0-.17-.6.16,0Z"/><path class="cls-1" d="M1.24,7.62H1.08L1,7H1.2Z"/><path class="cls-1" d="M1.2,9.66H1L1,9.05h.17Z"/><path class="cls-2" d="M6.31,9.3,7,8.59,11.15,4.3a8.14,8.14,0,0,0,.54-.63.86.86,0,0,0-.08-1.23.86.86,0,0,0-1.25,0,5.44,5.44,0,0,0-.42.41C9.3,3.56,8.67,4.26,8.05,5,7.17,6,6.31,7,5.44,8l-.1.14A3.13,3.13,0,0,1,6.31,9.3ZM3.48,11.65l.58,0a3.53,3.53,0,0,0,1.48-.44,1.24,1.24,0,0,0,.65-1.28,2.2,2.2,0,0,0-.83-1.45,1.06,1.06,0,0,0-1.44-.08A3.36,3.36,0,0,0,3,9.25a4.57,4.57,0,0,1-.38.49,1.42,1.42,0,0,1-1.44.45.71.71,0,0,0-.21,0c-.21,0-.32.16-.2.34a1.31,1.31,0,0,0,.35.39A4.13,4.13,0,0,0,3.48,11.65Z"/><path class="cls-2" d="M6.31,9.3a3.13,3.13,0,0,0-1-1.16L5.44,8c.87-1,1.73-2,2.61-3,.62-.72,1.25-1.42,1.89-2.13a5.44,5.44,0,0,1,.42-.41.86.86,0,0,1,1.25,0,.86.86,0,0,1,.08,1.23,8.14,8.14,0,0,1-.54.63L7,8.59Z"/><path class="cls-2" d="M3.48,11.65a4.13,4.13,0,0,1-2.39-.77,1.31,1.31,0,0,1-.35-.39c-.12-.18,0-.34.2-.34a.71.71,0,0,1,.21,0,1.42,1.42,0,0,0,1.44-.45A4.57,4.57,0,0,0,3,9.25a3.36,3.36,0,0,1,.95-.89,1.06,1.06,0,0,1,1.44.08,2.2,2.2,0,0,1,.83,1.45,1.24,1.24,0,0,1-.65,1.28,3.53,3.53,0,0,1-1.48.44Z"/><line class="cls-3" x1="8.63" y1="9.88" x2="11.28" y2="9.88"/><line class="cls-3" x1="9.95" y1="8.56" x2="9.95" y2="11.21"/></g></g></svg>