<svg width="10" height="18" viewBox="0 0 5 6" fill="none" xmlns="http://www.w3.org/2000/svg">
<path d="M4.34463 2.73003H2.80534V1.19073C2.80534 1.08867 2.76479 0.990789 2.69262 0.91862C2.62046 0.846452 2.52257 0.805908 2.42051 0.805908C2.31845 0.805908 2.22057 0.846452 2.1484 0.91862C2.07623 0.990789 2.03569 1.08867 2.03569 1.19073V2.73003H0.496396C0.394334 2.73003 0.296453 2.77057 0.224285 2.84274C0.152116 2.91491 0.111572 3.01279 0.111572 3.11485C0.111572 3.21691 0.152116 3.31479 0.224285 3.38696C0.296453 3.45913 0.394334 3.49967 0.496396 3.49967H2.03569V5.03897C2.03569 5.14103 2.07623 5.23891 2.1484 5.31108C2.22057 5.38325 2.31845 5.42379 2.42051 5.42379C2.52257 5.42379 2.62046 5.38325 2.69262 5.31108C2.76479 5.23891 2.80534 5.14103 2.80534 5.03897V3.49967H4.34463C4.44669 3.49967 4.54457 3.45913 4.61674 3.38696C4.68891 3.31479 4.72945 3.21691 4.72945 3.11485C4.72945 3.01279 4.68891 2.91491 4.61674 2.84274C4.54457 2.77057 4.44669 2.73003 4.34463 2.73003Z" fill="white"/>
</svg>
