<svg width="12" height="12" viewBox="0 0 7 7" fill="none" xmlns="http://www.w3.org/2000/svg">
<path fill-rule="evenodd" clip-rule="evenodd" d="M3.26802 0.948971C2.84718 0.924978 2.42844 1.02805 2.0581 1.24679C1.68775 1.46553 1.38022 1.79142 1.16951 2.18843C1.15657 2.21281 1.14052 2.23401 1.12221 2.25179L1.93542 2.04756C2.06263 2.01561 2.18956 2.10189 2.21892 2.24027C2.24829 2.37865 2.16898 2.51672 2.04177 2.54867L1.04595 2.79875C0.749131 2.8733 0.452967 2.67198 0.384445 2.3491L0.154548 1.26582C0.125181 1.12744 0.204496 0.989367 0.331702 0.957421C0.458908 0.925476 0.585835 1.01176 0.615202 1.15013L0.775064 1.90341C1.02886 1.43688 1.39424 1.05369 1.83251 0.794826C2.27948 0.530828 2.78486 0.406431 3.29276 0.435387C3.80067 0.464343 4.29133 0.645524 4.71048 0.9589C5.12964 1.27228 5.46096 1.70564 5.66783 2.21108C5.72093 2.34082 5.66729 2.49282 5.54803 2.55058C5.42876 2.60834 5.28903 2.55 5.23593 2.42026C5.06453 2.00147 4.79 1.64239 4.4427 1.38274C4.0954 1.12308 3.68886 0.972963 3.26802 0.948971ZM5.25093 4.06379C5.54774 3.98925 5.84391 4.19057 5.91243 4.51345L6.14233 5.59673C6.17169 5.73511 6.09238 5.87318 5.96517 5.90513C5.83797 5.93707 5.71104 5.85079 5.68167 5.71242L5.52181 4.95914C5.26801 5.42567 4.90264 5.80886 4.46436 6.06772C4.01739 6.33172 3.51202 6.45612 3.00411 6.42716C2.4962 6.39821 2.00555 6.21702 1.58639 5.90365C1.16724 5.59027 0.835912 5.15691 0.629044 4.65147C0.575944 4.52173 0.629581 4.36973 0.748846 4.31197C0.868111 4.25421 1.00784 4.31255 1.06094 4.44229C1.23235 4.86108 1.50687 5.22016 1.85417 5.47981C2.20147 5.73946 2.60802 5.88959 3.02885 5.91358C3.44969 5.93757 3.86843 5.8345 4.23878 5.61576C4.60913 5.39702 4.91665 5.07113 5.12736 4.67412C5.1403 4.64974 5.15636 4.62854 5.17466 4.61076L4.36145 4.81499C4.23425 4.84693 4.10732 4.76066 4.07795 4.62228C4.04859 4.4839 4.1279 4.34583 4.25511 4.31388L5.25093 4.06379Z" fill="#5F5F5F"/>
</svg>
