<?xml version="1.0" encoding="utf-8"?>
<svg version="1.1"
    id="svg2793" xmlns:cc="http://creativecommons.org/ns#"
    xmlns:dc="http://purl.org/dc/elements/1.1/"
    xmlns:rdf="http://www.w3.org/1999/02/22-rdf-syntax-ns#" xmlns:serif="http://www.serif.com/"
    xmlns:svg="http://www.w3.org/2000/svg"
    xmlns="http://www.w3.org/2000/svg" xmlns:xlink="http://www.w3.org/1999/xlink" x="0px" y="0px"
    viewBox="0 0 600 600"
    style="enable-background:new 0 0 600 600;" xml:space="preserve">
<style type="text/css">
	.st0{fill:#20BEC6;}
</style>
<g>
	<g>
		<path id="path2562_8_" class="st0" d="M548.9,531.6c-3.9,3.9-9,6-14.5,6c-5.5,0-10.6-2.1-14.5-6c-9.6-9.6-20.4-20.4-30-30
			c-3.9-3.9-6-9-6-14.5c0-5.4,2.1-10.5,5.9-14.4c0,0,0.1-0.1,0.1-0.1c3.9-3.9,9-6,14.5-6c5.5,0,10.6,2.1,14.5,6l0,0
			c9.6,9.6,20.4,20.4,30,30c3.9,3.9,6,9,6,14.5C554.9,522.6,552.8,527.7,548.9,531.6 M248.1,411.8c-49.9-49.9-49.9-131.1,0-181
			c24.2-24.2,56.3-37.5,90.5-37.5c34.2,0,66.3,13.3,90.5,37.5c49.9,49.9,49.9,131.1,0,181c-24.2,24.2-56.3,37.5-90.5,37.5
			C304.4,449.3,272.2,436,248.1,411.8 M223.5,113.4c-14.1,0-25.5-11.4-25.5-25.5c0-14.1,11.4-25.5,25.5-25.5
			c14.1,0,25.5,11.4,25.5,25.5C249,101.9,237.6,113.4,223.5,113.4 M70.6,330.3c-14.1,0-25.5-11.4-25.5-25.5
			c0-14.1,11.4-25.5,25.5-25.5c14.1,0,25.5,11.4,25.5,25.5C96.1,318.9,84.7,330.3,70.6,330.3 M529.4,146c14.1,0,25.5,11.4,25.5,25.5
			c0,14.1-11.4,25.5-25.5,25.5c-14.1,0-25.5-11.4-25.5-25.5C503.9,157.4,515.3,146,529.4,146 M543.5,447.9
			c-10.5-10.5-24.4-16.2-39.2-16.2c-8.4,0-16.4,1.8-23.8,5.3l-14.4-14.4c42.8-53.9,46.6-128.8,11.3-186.3l16.8-15.7
			c9.9,7.1,22,11.3,35.1,11.3c33.3,0,60.4-27.1,60.4-60.4c0-33.3-27.1-60.4-60.4-60.4c-33.3,0-60.4,27.1-60.4,60.4
			c0,7.5,1.4,14.7,3.9,21.3L456,208.5c-0.8-0.8-1.5-1.6-2.3-2.3c-30.7-30.7-71.6-47.7-115.2-47.7c-6.1,0-12.2,0.3-18.2,1l-41.8-46.9
			c3.4-7.5,5.3-15.9,5.3-24.7c0-33.3-27.1-60.4-60.4-60.4s-60.4,27.1-60.4,60.4c0,12.6,3.9,24.3,10.5,34l-88,124.5
			c-4.8-1.2-9.9-1.9-15.1-1.9c-33.3,0-60.4,27.1-60.4,60.4c0,33.3,27.1,60.4,60.4,60.4c33.3,0,60.4-27.1,60.4-60.4
			c0-15.5-5.9-29.6-15.4-40.3l85.3-120.8c7,2.9,14.7,4.4,22.7,4.4c11.7,0,22.7-3.4,32-9.2l26.3,29.6c-21.7,8-41.6,20.7-58.4,37.5h0
			c-63.5,63.5-63.5,166.8,0,230.3c30.7,30.7,71.6,47.7,115.2,47.7c38,0,74.1-12.9,103.1-36.7l13.7,13.7c-4.2,7.9-6.4,16.8-6.4,26
			c0,14.8,5.8,28.7,16.2,39.2c9.6,9.6,20.4,20.4,30,30c10.5,10.5,24.4,16.2,39.2,16.2c14.8,0,28.7-5.8,39.2-16.2
			c10.5-10.5,16.2-24.4,16.2-39.2c0-14.8-5.8-28.7-16.2-39.2C563.9,468.3,553.1,457.5,543.5,447.9"/>
		<g id="g2568_8_" transform="translate(350.546,2353.53)">
			<path id="path2566_8_" class="st0" d="M59.4-2074c-9.6,0-17.4,7.8-17.4,17.4v43.2c0,9.6,7.8,17.4,17.4,17.4s17.4-7.8,17.4-17.4
				v-43.2C76.8-2066.2,69-2074,59.4-2074"/>
		</g>
		<g id="g2572_8_" transform="translate(233.915,2353.87)">
			<path id="path2570_8_" class="st0" d="M40.4-2074.8c-9.6,0-17.4,7.8-17.4,17.4v44c0,9.6,7.8,17.4,17.4,17.4s17.4-7.8,17.4-17.4
				v-44C57.8-2066.9,50-2074.8,40.4-2074.8"/>
		</g>
		<g id="g2576_8_" transform="translate(292.229,2381.45)">
			<path id="path2574_8_" class="st0" d="M49.9-2134.4c-9.6,0-17.4,7.8-17.4,17.4v108.1c0,9.6,7.8,17.4,17.4,17.4
				s17.4-7.8,17.4-17.4V-2117C67.3-2126.6,59.5-2134.4,49.9-2134.4"/>
		</g>
	</g>
</g>
</svg>