<?xml version="1.0" encoding="utf-8"?>
<!-- Generator: Adobe Illustrator 25.2.1, SVG Export Plug-In . SVG Version: 6.00 Build 0)  -->
<svg version="1.1" id="Pix_Force_logo" xmlns="http://www.w3.org/2000/svg" xmlns:xlink="http://www.w3.org/1999/xlink" x="0px"
	 y="0px" viewBox="0 0 150 75" style="enable-background:new 0 0 150 75;" xml:space="preserve">
<g>
	<path d="M4.6,7.1h6.2v42.6h20.4v5.2H4.6V7.1z"/>
	<path d="M67.9,37.4c0,12.7-8.8,18.2-17.1,18.2c-9.3,0-16.5-6.8-16.5-17.7c0-11.5,7.5-18.2,17-18.2C61.2,19.8,67.9,26.9,67.9,37.4z
		 M40.6,37.8C40.6,45.3,45,51,51.1,51c6,0,10.4-5.6,10.4-13.3c0-5.8-2.9-13.2-10.3-13.2S40.6,31.3,40.6,37.8z"/>
	<path d="M105.3,20.6c-0.1,2.5-0.3,5.2-0.3,9.4v19.9c0,7.9-1.6,12.7-4.9,15.7c-3.3,3.1-8.2,4.1-12.5,4.1c-4.1,0-8.7-1-11.4-2.8
		l1.6-4.8c2.3,1.4,5.8,2.7,10.1,2.7c6.4,0,11.1-3.3,11.1-12V49h-0.1c-1.9,3.2-5.6,5.7-10.9,5.7c-8.5,0-14.6-7.2-14.6-16.7
		c0-11.6,7.6-18.2,15.5-18.2c6,0,9.2,3.1,10.7,6h0.1l0.3-5.2H105.3z M98.9,34.1c0-1.1-0.1-2-0.4-2.8c-1.1-3.6-4.2-6.6-8.7-6.6
		c-6,0-10.2,5-10.2,13C79.6,44.4,83,50,89.7,50c3.8,0,7.3-2.4,8.7-6.4c0.4-1.1,0.5-2.3,0.5-3.3V34.1z"/>
	<path d="M146.4,37.4c0,12.7-8.8,18.2-17.1,18.2c-9.3,0-16.5-6.8-16.5-17.7c0-11.5,7.5-18.2,17-18.2
		C139.8,19.8,146.4,26.9,146.4,37.4z M119.2,37.8c0,7.5,4.3,13.2,10.4,13.2c6,0,10.4-5.6,10.4-13.3c0-5.8-2.9-13.2-10.3-13.2
		C122.4,24.5,119.2,31.3,119.2,37.8z"/>
</g>
</svg>
