<?xml version="1.0" encoding="utf-8"?>
<!-- Generator: Adobe Illustrator 25.2.1, SVG Export Plug-In . SVG Version: 6.00 Build 0)  -->
<svg version="1.1" id="Pix_Force_logo" xmlns="http://www.w3.org/2000/svg" xmlns:xlink="http://www.w3.org/1999/xlink" x="0px"
	 y="0px" viewBox="0 0 300 150" style="enable-background:new 0 0 300 150;" xml:space="preserve">
<g>
	<path d="M11.8,14.2h12.1v83.3h39.9v10.1h-52V14.2z"/>
	<path d="M135.6,73.5c0,24.8-17.2,35.6-33.4,35.6C84,109.2,70,95.8,70,74.6C70,52.2,84.7,39,103.3,39C122.6,39,135.6,53,135.6,73.5z
		 M82.4,74.2c0,14.7,8.5,25.8,20.4,25.8c11.6,0,20.4-11,20.4-26.1c0-11.4-5.7-25.8-20.1-25.8S82.4,61.5,82.4,74.2z"/>
	<path d="M208.8,40.5c-0.3,4.9-0.6,10.3-0.6,18.4v39c0,15.4-3.1,24.8-9.6,30.6c-6.5,6.1-15.9,8-24.4,8c-8,0-16.9-1.9-22.3-5.5
		l3.1-9.3c4.4,2.8,11.4,5.3,19.7,5.3c12.5,0,21.6-6.5,21.6-23.4v-7.5H196c-3.7,6.2-11,11.2-21.4,11.2c-16.6,0-28.6-14.1-28.6-32.7
		c0-22.7,14.8-35.6,30.2-35.6c11.6,0,18,6.1,20.9,11.6h0.3l0.6-10.1H208.8z M196.2,67c0-2.1-0.1-3.9-0.7-5.5
		c-2.2-7.1-8.2-12.9-17.1-12.9c-11.6,0-20,9.8-20,25.4c0,13.2,6.7,24.1,19.8,24.1c7.5,0,14.3-4.7,16.9-12.5c0.7-2.1,1-4.4,1-6.5V67z
		"/>
	<path d="M289.2,73.5c0,24.8-17.2,35.6-33.4,35.6c-18.2,0-32.2-13.3-32.2-34.5c0-22.5,14.7-35.6,33.3-35.6
		C276.2,39,289.2,53,289.2,73.5z M236,74.2c0,14.7,8.5,25.8,20.4,25.8c11.6,0,20.4-11,20.4-26.1c0-11.4-5.7-25.8-20.1-25.8
		C242.2,48.1,236,61.5,236,74.2z"/>
</g>
</svg>
